<?xml version="1.0" standalone="no"?>
<!DOCTYPE svg PUBLIC "-//W3C//DTD SVG 20010904//EN"
 "http://www.w3.org/TR/2001/REC-SVG-20010904/DTD/svg10.dtd">
<svg version="1.0" xmlns="http://www.w3.org/2000/svg"
 width="700.000000pt" height="700.000000pt" viewBox="0 0 700.000000 700.000000"
 preserveAspectRatio="xMidYMid meet">
<metadata>
Created by potrace 1.11, written by Peter Selinger 2001-2013
</metadata>
<g transform="translate(0.000000,700.000000) scale(0.100000,-0.100000)"
fill="#000000" stroke="none">
<path d="M575 3500 l0 -3500 2915 2 2915 3 0 3498 1 3497 -2916 0 -2915 0 0
-3500z m892 3207 c10 -7 15 -6406 4 -6408 -3 -1 -142 -2 -308 -3 -203 -1 -303
2 -304 9 -1 5 -2 1448 -3 3205 -2 3093 -1 3195 17 3200 26 7 582 5 594 -3z
m3728 -7 c2 -8 6 -26 9 -40 30 -172 122 -363 241 -499 154 -176 394 -320 596
-357 24 -4 47 -9 52 -10 4 -1 11 -2 16 -3 5 0 8 -946 7 -2288 l-1 -2286 -64
-13 c-407 -83 -749 -414 -836 -809 -10 -44 -19 -85 -20 -90 -2 -7 -561 -10
-1716 -10 l-1714 0 0 3205 c0 3094 0 3205 18 3210 10 3 781 5 1713 5 1497 0
1695 -2 1699 -15z m897 11 l26 -1 0 -307 c0 -170 -2 -311 -5 -316 -2 -4 -10
-4 -16 0 -7 4 -23 9 -37 11 -46 6 -154 54 -225 100 -121 78 -230 204 -290 336
-19 44 -55 153 -55 169 0 3 17 7 38 9 31 2 477 2 564 -1z m25 -6103 l-2 -313
-312 0 c-172 0 -313 1 -313 2 0 23 41 145 65 195 100 202 258 338 475 408 97
32 88 61 87 -292z"/>
<path d="M3838 4802 l-37 -3 0 -347 c0 -191 0 -373 -1 -404 l0 -58 -423 0
-423 0 0 -142 c0 -79 3 -145 7 -148 4 -3 193 -5 419 -5 309 0 413 -2 417 -11
2 -7 5 -342 6 -746 l2 -733 140 0 140 0 5 745 5 746 413 -1 c228 0 417 2 421
5 4 3 7 69 7 148 l-1 142 -422 0 -423 0 0 405 0 405 -22 1 c-107 3 -199 3
-230 1z"/>
</g>
</svg>
